<svg id="Layer_1" data-name="Layer 1" xmlns="http://www.w3.org/2000/svg" viewBox="0 0 767.88672 181.79492"><defs><style>.cls-1{fill:#d9d9d6;}.cls-2{fill:#d9b48f;}</style></defs><path class="cls-1" d="M266.6849,83.35449c-.26464.79395-.52929,1.45508-1.05859,1.45508s-.92676-.66113-1.19141-1.32227c-4.76269-10.98242-25.668-48.16113-31.62109-57.95214-1.32324,14.68652-2.91113,31.62207-3.83691,47.23437-.5293,9.12988,2.249,9.26172,8.73144,10.32031a.7995.7995,0,1,1,0,1.58789c-4.10156,0-9.52539-.39648-12.43652-.39648-1.85254,0-8.46778.39648-11.64356.39648a.79539.79539,0,1,1,0-1.58789c6.08692-.79394,7.542-1.98437,8.73243-10.32031,3.17578-22.88867,5.82226-44.05859,8.33593-67.34473C231.09311,2.77832,231.49057,0,232.41635,0c.79394,0,1.32324,1.45508,2.64648,4.36621,6.21875,13.49512,22.75684,43.13281,33.73829,61.78809,2.38183-4.36621,6.748-12.43653,12.30468-23.419,6.21875-12.30469,12.9668-26.06445,18.127-36.38476C302.01108.794,302.40756,0,303.33432,0c.5293,0,.66113.794,1.19043,6.08594,1.71972,19.582,4.89551,49.61621,8.20312,68.13965,1.19043,6.74707,2.249,8.07031,7.67383,8.86425,1.05859,0,1.32324,1.58789,0,1.58789-2.64648-.13183-6.21875-.39648-10.7168-.39648-3.44043,0-9.92285.39648-11.77539.39648-1.45507,0-1.19043-1.58789,0-1.58789,2.11719-.26464,3.43946-.79394,3.043-6.21875-.92578-11.11328-3.70508-37.57519-5.68945-51.73242-2.249,4.36621-6.87988,13.23047-11.64258,22.625C276.60776,61.65625,271.84408,71.31445,266.6849,83.35449Z"/><path class="cls-1" d="M386.03061,84.67773c-2.91114,0-9.12989-.39648-11.64356-.39648-3.83691,0-9.791.52832-12.30468.39648-.92579,0-.92579-1.45507,0-1.58789,3.043-.39648,5.55664-.26464,3.83691-5.4248-1.45508-4.36621-3.043-7.67383-5.292-13.62793H343.55893A130.76664,130.76664,0,0,0,338.53158,77.665c-1.45605,4.76367.79395,5.02832,3.83692,5.4248.92578.13282.92578,1.58789,0,1.58789-2.51367.13184-8.07129-.39648-9.12988-.39648-2.51368,0-6.21778.39648-9.12891.39648-.92578,0-.92578-1.58789,0-1.58789,2.249-.39648,5.292-.66113,7.542-4.76269,2.77832-4.89551,6.21777-12.70215,9.52539-20.11133L352.42416,32.416c2.11621-4.76368,2.64551-5.68946,3.30762-5.68946.5293,0,.92578.66114,3.043,6.08594,3.17578,7.93848,6.35058,15.74512,9.6582,23.81543,2.77832,6.748,5.68945,13.36328,8.99707,20.11133,2.11719,4.498,3.57227,5.68945,8.60059,6.35058A.794.794,0,1,1,386.03061,84.67773ZM352.42416,42.33887c-.79394,1.58789-3.043,7.14453-3.70508,8.73242-.66113,1.58789-3.43945,8.20312-3.96875,9.52637H359.304C357.71615,56.36328,352.29135,42.86816,352.42416,42.33887Z"/><path class="cls-1" d="M439.48373,42.4707a.79551.79551,0,1,1-1.58789,0c-.13281-6.08593-3.17578-9.39355-7.93847-9.79a112.85236,112.85236,0,0,0-11.90821-.26464c-.13183,1.05859-.26465,6.35058-.26465,8.5996-.13183,13.09864-.13183,24.2129,0,31.88672.13282,8.335,1.71973,9.52637,7.80664,10.1875a.794.794,0,1,1,0,1.58789c-5.293,0-9.52636-.39648-12.30468-.39648-1.98535,0-8.60059.39648-11.11426.39648-1.19043,0-.92578-1.45507,0-1.58789,3.44043-.66113,5.4248-.66113,5.4248-8.99707.13184-8.335,0-23.68261,0-33.34179,0-1.85254-.13281-7.27637-.26464-8.335a86.53507,86.53507,0,0,0-10.98145.39648c-7.27734.5293-8.86523,3.043-9.65918,9.52637-.13184,1.19043-1.58789,1.19043-1.58789,0-.13184-1.58789-.13184-9.26172-.13184-10.585.26465-5.95411.39649-3.83692,3.44043-3.57227,3.043.26465,11.2461.5293,24.08008.5293,10.45215,0,21.4336-.39649,25.00586-.5293,2.25-.13184,2.77832-2.38184,2.77832,2.38184C440.14487,34.79688,439.74838,39.42773,439.48373,42.4707Z"/><path class="cls-1" d="M482.74838,51.86523c.39649.13184.13184.5293-.13184,2.64649-.26464,2.51367-.79394,6.08594-1.05859,7.14453-.26465.92578-1.58789.794-1.58789,0,0-4.23437-2.64648-4.23437-6.87988-4.499-1.58789-.13184-8.07129-.26465-9.65918-.26465,0,4.499,0,11.9082.26465,17.59765.13281,5.42481,1.45605,5.82129,6.21875,5.82129h5.82129c7.93847,0,10.71777-4.76269,11.77539-10.45214a.794.794,0,1,1,1.58789,0,86.57627,86.57627,0,0,1-.39649,10.71679c-.39746,2.249-1.45605,4.2334-5.16015,4.2334-4.499,0-12.17286-.52832-26.72657-.52832-1.98437,0-7.14453.39648-10.1875.39648a.794.794,0,0,1,0-1.58789c4.7627-.52929,6.21875-1.05859,6.61524-9.26172.26465-6.21777.26465-11.64257.26465-17.86132,0-5.55664-.13282-10.98145-.26465-16.80371-.26465-7.541-.92578-8.99707-6.87988-9.39356-.66211,0-.66211-1.58789,0-1.58789,4.10156,0,8.07031.26465,10.98144.26465,5.68945-.13184,18.126-.26465,22.22754-.26465s5.68945.26465,5.16016,5.02832c-.26465,2.249-.5293,5.02734-.92579,7.01172-.26464.92676-1.58789.79394-1.58789,0,0-4.63086-1.58789-7.27637-6.08593-7.67383-4.499-.39648-7.67383-.39648-12.70215-.39648V53.18848h6.748c3.30762,0,6.21875-.13282,8.99708-.26465C482.08725,52.791,481.8226,51.60059,482.74838,51.86523Z"/><path class="cls-1" d="M529.85092,86.001c-17.72949,0-26.06543-7.40918-26.06543-26.59473V39.69238c-.13184-8.86426-1.71973-9.39355-6.74707-9.92285-1.19141-.26465-1.32324-1.58789,0-1.58789,2.77832,0,8.59961.39746,11.24609.39746,1.98438,0,7.541-.39746,10.45215-.39746,1.19043,0,1.0586,1.32324,0,1.58789-3.44043.5293-4.498,1.32324-4.76269,10.05567V57.81934c0,14.55371,2.249,24.34472,17.06738,24.34472,14.42187,0,17.332-12.17285,17.332-25.40332,0-3.96972,0-11.24609-.26367-19.582-.13281-6.21875-1.58789-7.01269-5.42481-7.40918-1.05859-.13281-1.1914-1.71973,0-1.58789,2.51368,0,7.14454.26465,8.59961.26465,1.58789,0,4.36621-.26465,6.61524-.26465,1.32324,0,1.05859,1.45508,0,1.58789-2.38086.39649-3.7041,2.11719-3.83692,7.40918-.13183,6.748-.26464,15.34766-.26464,20.376C553.79819,75.15137,546.389,86.001,529.85092,86.001Z"/><path class="cls-1" d="M570.60287,69.06543c.13184-.794,1.45508-.794,1.45508,0,1.32324,8.59961,6.4834,13.89258,14.15723,13.89258s11.90722-4.10156,11.90722-9.791c0-7.01269-5.02734-9.26172-13.62695-13.49609-7.14551-3.43945-13.09863-8.73242-12.9668-17.72852,0-8.86523,7.542-15.21582,18.39063-15.21582,5.16016,0,8.60059.794,10.585,1.85254,2.38184,1.05762,3.043,2.77832,3.043,5.16016a64.90832,64.90832,0,0,1-.5293,7.27636.82637.82637,0,0,1-1.58691,0c-.92676-5.02734-5.293-11.11425-12.041-11.11425-6.21777,0-9.39355,3.70508-9.39355,8.73242,0,6.61621,4.63086,9.26172,10.32031,12.17285,11.77539,5.68945,16.53809,10.84961,16.27344,19.44922-.26465,9.52637-9.52539,15.74512-20.9043,15.74512-11.11426,0-15.74512-3.043-15.87695-7.27735A46.79907,46.79907,0,0,1,570.60287,69.06543Z"/><path class="cls-1" d="M225.00717,136.94238c0-9.791.13184-16.93554-.26465-27.124-.26465-7.40918-2.38183-9.92285-9.26172-10.584a.79539.79539,0,1,1,0-1.58789c3.043.13184,9.65821.39649,12.9668.39649,4.2334,0,12.56934-.79395,20.11035-.5293,22.88965.5293,26.46192,13.62793,26.46192,21.56641,0,9.92383-5.82129,17.59765-15.61231,22.49316a220.38244,220.38244,0,0,0,13.09863,18.39063c6.35059,7.93847,10.32032,12.17187,14.95118,15.74511,3.30761,2.51368,7.01171,2.91016,9.52539,3.17481a.79541.79541,0,1,1,0,1.58789,91.70939,91.70939,0,0,1-14.68555-.39648c-9.39453-1.5879-13.23145-5.42481-23.55176-20.376-3.96875-5.82129-7.01172-10.7168-9.6582-15.083a63.37442,63.37442,0,0,1-13.23047-.13281c0,8.86523.13184,16.6709.26465,20.11133.52929,12.43652,1.58691,13.49511,9.26172,14.28906,1.05761,0,1.32226,1.58789,0,1.58789-5.02832-.13184-12.9668-.66113-15.61328-.66113-3.17481,0-8.99708.52929-13.627.66113-1.1914,0-.92676-1.58789,0-1.58789,6.87988-.92578,8.46778-1.19043,8.73145-14.15723C225.139,155.2002,225.00717,146.33594,225.00717,136.94238Zm20.90527-35.459a65.80861,65.80861,0,0,0-9.92382-.26465c0,5.4248-.13184,9.791-.13184,38.7666a51.36837,51.36837,0,0,0,15.74414.5293c8.46777-.79395,12.04-8.60059,12.04-17.99414C263.641,110.6123,258.08432,102.40918,245.91244,101.4834Z"/><path class="cls-1" d="M326.888,181.79492c-17.46484,0-32.2832-9.39453-32.2832-29.1084,0-17.99414,14.28906-30.166,32.94531-30.166,18.52246,0,30.29785,13.36328,30.29785,28.18164A30.53144,30.53144,0,0,1,326.888,181.79492Zm-20.9043-29.76953c0,16.1416,7.01172,26.3291,20.9043,26.3291,12.9668,0,20.11133-9.1289,20.11133-23.28613,0-14.95117-5.68946-29.24024-22.49317-28.84375C311.93686,126.48926,305.98373,136.54492,305.98373,152.02539Z"/><path class="cls-1" d="M397.93881,181.13281c-8.86426,0-16.00879-1.05761-19.44922-1.05761-1.32324,0-6.35058.26464-9.92285.39648a.79548.79548,0,0,1,0-1.58789c7.27637-.79395,6.74805-2.38184,7.01172-11.64258,0-3.04394.13281-12.834.13281-15.87793,0-7.01172,0-14.81836-.13281-17.86133-.26367-6.35058-1.98438-7.542-6.74707-7.93847-1.32324-.13184-1.19141-1.71973,0-1.58789,2.249.13281,7.14453.39746,9.39355.39746,3.30762,0,12.04-.5293,18.65528-.5293,20.376,0,33.21,9.39355,33.21,28.71094C430.09018,169.09277,418.31479,181.13281,397.93881,181.13281ZM395.95444,127.416a91.92356,91.92356,0,0,0-10.1875-.13282v28.31446c0,9.26171.13183,14.42187.39648,17.46484.13281,1.85254.5293,2.77832,1.98437,3.30762a23.70185,23.70185,0,0,0,9.26172,1.45508c14.81934,0,21.83106-9.92286,21.83106-24.74122C419.24057,136.54492,409.05307,128.47461,395.95444,127.416Z"/><path class="cls-1" d="M448.08529,131.25293c0-3.83691-1.58789-5.293-6.21875-5.68945-.79394-.13184-.79394-1.58789,0-1.58789,1.45606,0,7.93848.26464,10.18848.26464,2.91016,0,10.98145-.66113,16.27344-.52929,16.53906.52929,19.44922,9.39453,19.44922,14.81836,0,6.4834-4.10156,11.64355-11.11328,15.48047a138.59728,138.59728,0,0,0,8.99707,12.4375c4.36621,5.68847,7.27636,8.46777,10.1875,10.45214a17.60664,17.60664,0,0,0,5.292,1.98438.7995.7995,0,1,1,0,1.58789c-1.85254.13184-8.07031.39648-11.11328-.26465-5.9541-1.19043-9.12989-3.57226-16.27442-14.28906-2.77832-3.96973-3.96972-5.9541-5.82129-9.12988a35.41078,35.41078,0,0,1-4.499.26464,32.17994,32.17994,0,0,1-5.02734-.39648c0,6.21875.13183,10.05566.26465,12.43652.39648,8.46778.79394,9.26172,6.74707,9.791.92675,0,.92675,1.58789,0,1.58789-3.43946,0-8.99707-.39648-11.90723-.39648-2.51367,0-8.33594.39648-11.51074.39648-.92676,0-.92676-1.45508,0-1.58789,4.76269-.66113,5.9541-1.32324,6.08593-10.05567C448.61459,155.46484,448.48178,144.61621,448.08529,131.25293Zm17.06739-4.23438a39.33912,39.33912,0,0,0-6.74707-.13183v26.3291a43.58437,43.58437,0,0,0,10.98144.26465c5.68946-.5293,8.335-5.82129,8.335-12.43652C477.722,132.84082,473.75326,127.8125,465.15268,127.01855Z"/><path class="cls-1" d="M522.31088,168.96094c.26465,9.1289,1.71973,9.26172,6.61524,9.92285.92578.13281.79394,1.58789,0,1.58789-3.17579,0-8.99708-.39648-11.64356-.39648-2.51367,0-8.335.39648-11.24609.39648-.92578,0-.92578-1.58789,0-1.58789,3.83691-.5293,5.4248-.92578,5.68945-9.92285.13184-3.30762.26465-11.90821.26465-15.21582,0-7.0127-.13281-15.083-.26465-18.25879-.26465-8.99707-2.11719-9.65821-5.9541-10.05469-.79395-.13281-.92578-1.58789,0-1.58789,1.45508,0,8.20312.5293,10.84961.5293,1.45508,0,8.07031-.39746,10.98144-.5293.92676,0,.92676,1.45508,0,1.58789-3.96875.52832-5.292,1.19043-5.4248,10.05469,0,2.91113-.13184,12.04-.13184,18.25879C522.04623,157.05273,522.31088,165.52051,522.31088,168.96094Z"/><path class="cls-1" d="M583.0394,177.42871c1.58789-.39746,1.7207-.92676,1.7207-2.77832,0-4.63086,0-7.01269-.13281-10.71777-.13184-6.48242-3.57227-6.35059-6.87989-7.01172-.92578-.26465-.79394-1.58789,0-1.58789,2.64649,0,7.27735.39648,11.51075.39648,2.77832,0,7.40918-.39648,9.52636-.52929.79395,0,.79395,1.45605,0,1.58789-3.44043,1.05859-4.23437,1.7207-4.498,9.26171v7.67383c0,1.45606,0,3.17578.13183,4.63086-3.83691,2.11719-13.89258,3.44043-21.03711,3.44043-18.78808,0-33.34179-9.39453-33.34179-28.84375,0-17.99414,13.23047-30.43066,33.47363-30.43066,8.99707,0,14.42187,1.71972,17.46484,3.30761,3.04395,1.71973,3.57227,3.83692,3.17578,7.93848-.13183.92578-.79394,5.82129-.92578,6.748-.26465.79394-1.58789.66113-1.58789,0-1.58789-10.84961-8.99707-14.42188-18.52344-14.42188-13.89257,0-21.69824,9.65821-21.69824,25.93262,0,17.72949,8.335,26.3291,23.15332,26.3291A35.78683,35.78683,0,0,0,583.0394,177.42871Z"/><path class="cls-1" d="M638.47787,181.79492c-17.72949,0-26.06543-7.40918-26.06543-26.59472V135.48633c-.13183-8.86426-1.71972-9.39356-6.74707-9.92285-1.1914-.26465-1.32324-1.58789,0-1.58789,2.77832,0,8.59961.39746,11.2461.39746,1.98437,0,7.541-.39746,10.45215-.39746,1.19042,0,1.05859,1.32324,0,1.58789-3.44043.52929-4.498,1.32324-4.7627,10.05566v17.99414c0,14.55371,2.249,24.34473,17.06738,24.34473,14.42188,0,17.332-12.17285,17.332-25.40332,0-3.96973,0-11.2461-.26367-19.582-.13281-6.21875-1.58789-7.0127-5.4248-7.40918-1.0586-.13184-1.19141-1.71973,0-1.58789,2.51367,0,7.14453.26464,8.59961.26464,1.58789,0,4.36621-.26464,6.61523-.26464,1.32324,0,1.05859,1.45605,0,1.58789-2.38086.39648-3.7041,2.11718-3.83691,7.40918-.13184,6.748-.26465,15.34765-.26465,20.376C662.42514,170.94531,655.016,181.79492,638.47787,181.79492Z"/><path class="cls-1" d="M714.556,147.65918c.39648.13184.13183.5293-.13184,2.64648-.26465,2.51368-.79394,6.08594-1.05859,7.14454-.26465.92578-1.58789.79394-1.58789,0,0-4.23438-2.64649-4.23438-6.87989-4.499-1.58789-.13183-8.07128-.26465-9.65917-.26465,0,4.499,0,11.90821.26464,17.59766.13282,5.4248,1.45606,5.82129,6.21875,5.82129h5.82129c7.93848,0,10.71778-4.7627,11.77539-10.45215a.794.794,0,1,1,1.58789,0,86.57861,86.57861,0,0,1-.39648,10.7168c-.39746,2.249-1.45606,4.2334-5.16016,4.2334-4.499,0-12.17285-.52832-26.72656-.52832-1.98437,0-7.14453.39648-10.1875.39648a.79394.79394,0,0,1,0-1.58789c4.7627-.5293,6.21875-1.05859,6.61524-9.26172.26464-6.21777.26464-11.64258.26464-17.86133,0-5.55664-.13281-10.98144-.26464-16.80371-.26465-7.541-.92579-8.99707-6.87989-9.39355-.66211,0-.66211-1.58789,0-1.58789,4.10156,0,8.07031.26464,10.98145.26464,5.68945-.13183,18.126-.26464,22.22754-.26464s5.68945.26464,5.16015,5.02832c-.26465,2.249-.52929,5.02734-.92578,7.01171-.26465.92676-1.58789.79395-1.58789,0,0-4.63085-1.58789-7.27636-6.08594-7.67382-4.499-.39649-7.67382-.39649-12.70214-.39649v21.03711h6.748c3.30762,0,6.21875-.13281,8.99707-.26465C713.89487,148.585,713.63022,147.39453,714.556,147.65918Z"/><path class="cls-1" d="M731.889,164.85937c.13183-.79394,1.45507-.79394,1.45507,0,1.32325,8.59961,6.4834,13.89258,14.15723,13.89258s11.90723-4.10156,11.90723-9.791c0-7.0127-5.02735-9.26172-13.627-13.4961-7.1455-3.43945-13.09863-8.73242-12.96679-17.72851,0-8.86524,7.542-15.21582,18.39062-15.21582,5.16016,0,8.60059.79394,10.585,1.85254,2.38184,1.05859,3.043,2.77832,3.043,5.16015a64.90833,64.90833,0,0,1-.5293,7.27637.82637.82637,0,0,1-1.58691,0c-.92676-5.02734-5.293-11.11426-12.041-11.11426-6.21778,0-9.39356,3.70508-9.39356,8.73242,0,6.61622,4.63086,9.26172,10.32031,12.17286C763.37826,152.29,768.141,157.4502,767.87631,166.0498c-.26465,9.52637-9.52539,15.74512-20.9043,15.74512-11.11425,0-15.74511-3.043-15.87695-7.27734A46.79848,46.79848,0,0,1,731.889,164.85937Z"/><path class="cls-2" d="M72.05215,90.89744A20.63373,20.63373,0,0,0,51.41843,70.26372,20.63371,20.63371,0,0,0,72.05215,49.63,20.6337,20.6337,0,0,0,92.68586,70.26372,20.63371,20.63371,0,0,0,72.05215,90.89744Z"/><path class="cls-2" d="M140.1753,62.49861a73.18033,73.18033,0,1,0,5.735,28.39885A72.70614,72.70614,0,0,0,140.1753,62.49861ZM25.36478,133.37444l24.73648-24.751,7.745,15.49518,6.81213-6.80442L52.60345,93.19638l-32.86808,32.8874a63.80151,63.80151,0,1,1,114.37585-16.9195l-18.441-36.8448L41.49611,146.4099A64.26282,64.26282,0,0,1,25.36478,133.37444Zm47.59037,21.34265a63.5071,63.5071,0,0,1-22.68061-4.16336L113.168,87.73127l16.35933,32.68559A63.88326,63.88326,0,0,1,72.95515,154.71709Z"/></svg>